<?xml version="1.0" encoding="UTF-8" standalone="no"?>
<!-- Created with Inkscape (http://www.inkscape.org/) -->

<svg
   width="136.45508mm"
   height="134.16035mm"
   viewBox="0 0 136.45508 134.16035"
   version="1.1"
   id="svg5"
   xml:space="preserve"
   inkscape:export-filename="bitmap.svg"
   inkscape:export-xdpi="96"
   inkscape:export-ydpi="96"
   xmlns:inkscape="http://www.inkscape.org/namespaces/inkscape"
   xmlns:sodipodi="http://sodipodi.sourceforge.net/DTD/sodipodi-0.dtd"
   xmlns="http://www.w3.org/2000/svg"
   xmlns:svg="http://www.w3.org/2000/svg"><sodipodi:namedview
     id="namedview7"
     pagecolor="#505050"
     bordercolor="#eeeeee"
     borderopacity="1"
     inkscape:showpageshadow="0"
     inkscape:pageopacity="0"
     inkscape:pagecheckerboard="0"
     inkscape:deskcolor="#505050"
     inkscape:document-units="mm"
     showgrid="false"
     inkscape:lockguides="true" /><defs
     id="defs2"><inkscape:path-effect
       effect="powermask"
       id="path-effect11196"
       is_visible="true"
       lpeversion="1"
       uri="#mask-powermask-path-effect11196"
       invert="false"
       hide_mask="false"
       background="true"
       background_color="#ffffffff" /><inkscape:path-effect
       effect="powermask"
       id="path-effect11191"
       is_visible="true"
       lpeversion="1"
       uri="#mask-powermask-path-effect11191"
       invert="false"
       hide_mask="false"
       background="true"
       background_color="#ffffffff" /><mask
       maskUnits="userSpaceOnUse"
       id="mask-powermask-path-effect11191"><path
         id="mask-powermask-path-effect11191_box"
         style="fill:#ffffff;fill-opacity:1"
         d="M -0.93730739,-0.99388321 H 1.1054605 V 1.0566054 h -2.04276789 z" /><path
         fill-rule="evenodd"
         fill="#000000"
         stroke="#555555"
         stroke-width="0"
         opacity="1"
         d="m 0.0440838,0.06364822 -2e-7,10e-9 4e-8,5e-8 1e-8,3e-8 0.03684474,0.05179867 4e-8,5e-8 1e-7,1.3e-7 1.1e-7,-1.3e-7 4e-8,-5e-8 0.03684468,-0.05179856 1.2e-7,-1.9e-7 -6e-8,-10e-9 h -4e-8 -0.02172218 l -9.9e-7,-5e-8 -9.8e-7,-1.5e-7 -9.9e-7,-2e-7 -9.9e-7,-4e-7 -9.8e-7,-3.9e-7 -7.9e-7,-6e-7 -7.9e-7,-6e-7 -7.9e-7,-6e-7 -5.9e-7,-7.9e-7 -5.9e-7,-8e-7 -6e-7,-7.9e-7 -3.9e-7,-8e-7 -4e-7,-9.9e-7 -1.9e-7,-1e-6 -1.4e-7,-9.9e-7 -5e-8,-1e-6 V 0.03470292 l -10e-9,-2e-7 -2e-7,-2e-8 H 0.06581608 l -2e-7,2e-8 -10e-9,2e-7 v 0.0289353 l -5e-8,9.9e-7 -1.5e-7,1e-6 -2e-7,9.9e-7 -3.9e-7,1e-6 -4e-7,8e-7 -5.9e-7,7.9e-7 -5.9e-7,8e-7 -5.9e-7,7.9e-7 -7.9e-7,6e-7 -7.9e-7,6e-7 -7.9e-7,5.9e-7 -9.9e-7,4e-7 -9.8e-7,4e-7 -9.9e-7,2e-7 -9.9e-7,1.5e-7 -9.8e-7,5e-8 z"
         id="path11185"
         style="" /></mask><mask
       maskUnits="userSpaceOnUse"
       id="mask-powermask-path-effect11196"><path
         id="mask-powermask-path-effect11196_box"
         style="fill:#ffffff;fill-opacity:1"
         d="M -0.94660627,-0.93730828 H 1.1038928 V 1.1054507 h -2.05049907 z" /><path
         fill-rule="evenodd"
         fill="#000000"
         stroke="#555555"
         stroke-width="0"
         opacity="1"
         d="m 0.0440838,0.06364822 -2e-7,10e-9 4e-8,5e-8 1e-8,3e-8 0.03684474,0.05179867 4e-8,5e-8 1e-7,1.3e-7 1.1e-7,-1.3e-7 4e-8,-5e-8 0.03684468,-0.05179856 1.2e-7,-1.9e-7 -6e-8,-10e-9 h -4e-8 -0.02172218 l -9.9e-7,-5e-8 -9.8e-7,-1.5e-7 -9.9e-7,-2e-7 -9.9e-7,-4e-7 -9.8e-7,-3.9e-7 -7.9e-7,-6e-7 -7.9e-7,-6e-7 -7.9e-7,-6e-7 -5.9e-7,-7.9e-7 -5.9e-7,-8e-7 -6e-7,-7.9e-7 -3.9e-7,-8e-7 -4e-7,-9.9e-7 -1.9e-7,-1e-6 -1.4e-7,-9.9e-7 -5e-8,-1e-6 V 0.03470292 l -10e-9,-2e-7 -2e-7,-2e-8 H 0.06581608 l -2e-7,2e-8 -10e-9,2e-7 v 0.0289353 l -5e-8,9.9e-7 -1.5e-7,1e-6 -2e-7,9.9e-7 -3.9e-7,1e-6 -4e-7,8e-7 -5.9e-7,7.9e-7 -5.9e-7,8e-7 -5.9e-7,7.9e-7 -7.9e-7,6e-7 -7.9e-7,6e-7 -7.9e-7,5.9e-7 -9.9e-7,4e-7 -9.8e-7,4e-7 -9.9e-7,2e-7 -9.9e-7,1.5e-7 -9.8e-7,5e-8 z"
         id="path11189"
         style="" /></mask></defs><g
     inkscape:label="Layer 1"
     inkscape:groupmode="layer"
     id="layer1"
     transform="translate(-22.29732,-78.002477)"><g
       inkscape:groupmode="layer"
       id="layer2"
       inkscape:label="Layer 2"><path
         fill-rule="evenodd"
         fill="#000000"
         stroke="#555555"
         stroke-width="0"
         opacity="1"
         d="m 0.0533943,0.10542179 -2e-8,1.5e-7 h 3e-8 l 1.1e-7,10e-9 1e-7,10e-9 4.975e-5,1.53e-6 10e-9,1e-8 5.001e-5,1.51e-6 1e-8,10e-9 5.002e-5,1.48e-6 h 1e-8 l 5.003e-5,1.44e-6 h 1e-8 l 5.004e-5,1.42e-6 h 1e-8 l 5.004e-5,1.38e-6 h 1e-8 l 5.006e-5,1.34e-6 h 1e-8 l 5.006e-5,1.3e-6 h 1e-8 l 5.007e-5,1.27e-6 h 1e-8 l 5.009e-5,1.22e-6 h 10e-9 l 5.01e-5,1.18e-6 10e-9,10e-9 5.01e-5,1.13e-6 1e-8,10e-9 5.012e-5,1.09e-6 h 1e-8 l 5.011e-5,1.05e-6 h 2e-8 l 5.014e-5,1e-6 h 1e-8 l 5.015e-5,9.6e-7 h 1e-8 l 5.018e-5,9.1e-7 h 1e-8 l 5.017e-5,8.6e-7 h 2e-8 l 5.017e-5,8e-7 h 1e-8 l 5.021e-5,7.5e-7 h 10e-9 l 5.02e-5,7e-7 h 2e-8 l 5.02e-5,6.5e-7 h 1e-8 l 5.024e-5,5.9e-7 h 10e-9 l 5.026e-5,5.4e-7 h 2e-8 l 5.023e-5,4.7e-7 h 10e-9 l 5.03e-5,4.1e-7 v 0 h 1e-8 l 5.03e-5,3.6e-7 v 0 l 5.031e-5,2.9e-7 v 0 l 5.03e-5,2.3e-7 5.037e-5,1.7e-7 5.033e-5,1e-7 5.032e-5,3e-8 h 7e-8 9e-8 l 0.0021957,-4.691e-5 3.6e-7,-2e-8 h 3e-8 l 0.0021716,-1.3946e-4 4e-7,-4e-8 0.0021457,-2.3009e-4 2.7e-7,-4e-8 8e-8,-1e-8 0.0021179,-3.1881e-4 3.9e-7,-7e-8 0.0020883,-4.0565e-4 v 0 l 0.0020568,-4.9059e-4 3.9e-7,-1e-7 10e-9,-10e-9 0.002023,-5.735e-4 3.7e-7,-1.1e-7 0.0019876,-6.546e-4 1.7e-7,-6e-8 1.9e-7,-6e-8 0.0019502,-7.3376e-4 3.5e-7,-1.4e-7 0.0019109,-8.1101e-4 3.4e-7,-1.5e-7 0.0018698,-8.8637e-4 3.4e-7,-1.7e-7 0.0018266,-9.5977e-4 3.2e-7,-1.8e-7 0.0017817,-0.0010313 3.2e-7,-1.9e-7 0.0017347,-0.0011009 3.3e-7,-2.1e-7 0.0016859,-0.0011686 3e-7,-2.2e-7 0.0016352,-0.0012344 2.9e-7,-2.2e-7 0.0015826,-0.0012983 10e-9,-10e-9 0.0015281,-0.0013604 2.7e-7,-2.5e-7 0.0014715,-0.0014203 1.3e-7,-1.3e-7 0.0014132,-0.0014785 2.5e-7,-2.7e-7 0.0013528,-0.0015346 2.4e-7,-2.7e-7 0.0012906,-0.0015889 2e-8,-3e-8 2.1e-7,-2.7e-7 0.0012265,-0.0016413 2.1e-7,-3e-7 0.0011605,-0.0016919 v -10e-9 l 0.0010926,-0.0017406 2e-7,-3.2e-7 0.0010227,-0.0017871 10e-9,-2e-8 9.51e-4,-0.001832 1.7e-7,-3.5e-7 8.7722e-4,-0.0018747 2e-8,-4e-8 5e-8,-1.1e-7 8.0167e-4,-0.0019157 1.5e-7,-3.8e-7 7.2418e-4,-0.0019547 v 0 -2e-8 l 6.4478e-4,-0.001992 2e-8,-4e-8 10e-9,-6e-8 2e-8,-7e-8 5.6339e-4,-0.002027 4e-8,-1.7e-7 10e-9,-6e-8 -3e-8,-10e-9 -1.7e-7,-3e-8 -9.718e-5,-1.382e-5 v 0 l -2.8393e-4,-4.038e-5 -4.58e-4,-6.514e-5 v 0 l -6.1965e-4,-8.812e-5 v 0 l -7.6887e-4,-1.0935e-4 -9.0563e-4,-1.288e-4 v 0 l -0.00103,-1.4649e-4 -0.0011419,-1.624e-4 v 0 l -0.0012414,-1.7655e-4 -0.0013284,-1.8893e-4 -0.001403,-1.9954e-4 v 0 l -0.0014652,-2.0838e-4 -0.0015149,-2.1546e-4 v 0 L 0.09008173,0.0655571 v 0 l -0.0015771,-2.2429e-4 -0.0015895,-2.2606e-4 -0.0015895,-2.2607e-4 -0.0015771,-2.243e-4 v 0 0 l -0.0015522,-2.2076e-4 v 0 l -0.0015149,-2.1546e-4 -0.0014652,-2.0838e-4 v 0 l -0.001403,-1.9954e-4 -0.0013284,-1.8892e-4 -0.0012414,-1.7655e-4 -0.0011419,-1.6241e-4 v 0 l -0.00103,-1.4648e-4 v 0 l -9.0566e-4,-1.288e-4 -7.6884e-4,-1.0935e-4 -6.1965e-4,-8.814e-5 v 0 l -4.5801e-4,-6.513e-5 -2.8392e-4,-4.038e-5 -9.718e-5,-1.382e-5 -2.4e-7,-3e-8 -1.3e-7,2.2e-7 -2.2294e-4,4.1729e-4 -1.4e-7,2.5e-7 -2.3428e-4,4.1026e-4 -1.5e-7,2.5e-7 -2.4536e-4,4.0293e-4 -1.5e-7,2.4e-7 -2.5627e-4,3.9539e-4 -1.5e-7,2.4e-7 -2.669e-4,3.8764e-4 -1.6e-7,2.3e-7 -2.7742e-4,3.7969e-4 -1.7e-7,2.2e-7 -2.8763e-4,3.7154e-4 -1.7e-7,2.1e-7 -2.977e-4,3.6315e-4 -1.8e-7,2.2e-7 -3.0752e-4,3.5457e-4 -1.9e-7,2.1e-7 -3.1718e-4,3.458e-4 -1.9e-7,2e-7 -3.2659e-4,3.3679e-4 -1.9e-7,1.9e-7 -3.3582e-4,3.2759e-4 -2.1e-7,1.9e-7 -3.4481e-4,3.1818e-4 -2.1e-7,1.9e-7 -3.5363e-4,3.0856e-4 -2.2e-7,1.8e-7 -3.6224e-4,2.9873e-4 -2.1e-7,1.7e-7 -3.7061e-4,2.887e-4 -2.3e-7,1.7e-7 -3.788e-4,2.7845e-4 -2.2e-7,1.6e-7 -3.8676e-4,2.6801e-4 -2.3e-7,1.5e-7 -3.9456e-4,2.5735e-4 -2.3e-7,1.5e-7 -4.0213e-4,2.4647e-4 -2.4e-7,1.4e-7 -4.0945e-4,2.354e-4 -2.4e-7,1.4e-7 -4.1663e-4,2.2413e-4 -2.5e-7,1.3e-7 -4.2353e-4,2.1262e-4 -2.6e-7,1.3e-7 -4.303e-4,2.0093e-4 -2.6e-7,1.2e-7 -4.3679e-4,1.8902e-4 -2.6e-7,1.1e-7 -4.4313e-4,1.7691e-4 -2.7e-7,1e-7 -4.4924e-4,1.6459e-4 -2.7e-7,9e-8 -4.5514e-4,1.5207e-4 -2.7e-7,9e-8 -4.6083e-4,1.3931e-4 -2.7e-7,8e-8 -4.6634e-4,1.2638e-4 -2.8e-7,7e-8 -4.7161e-4,1.1323e-4 -2.8e-7,6e-8 -4.7658e-4,9.984e-5 -1.1e-7,3e-8 -1.2e-7,3e-8 v 0 l -4e-8,2.1e-7 v 2e-8 l -1.382e-5,9.71e-5 v 0 l -4.039e-5,2.8374e-4 v 0 l -6.511e-5,4.5771e-4 v 0 l -8.81e-5,6.1927e-4 -1.0935e-4,7.6838e-4 v 0 l -1.2877e-4,9.0508e-4 v 0 l -1.4645e-4,0.0010293 -1.6236e-4,0.0011412 -1.7652e-4,0.0012406 v 0 l -1.8889e-4,0.0013276 -1.995e-4,0.0014021 -2.0834e-4,0.0014643 v 0 l -2.1541e-4,0.001514 -2.2072e-4,0.0015513 -2.2426e-4,0.0015761 v 0 l -2.2602e-4,0.0015885 -2.2603e-4,0.0015885 v 0 l -2.2423e-4,0.0015761 -2.2071e-4,0.0015513 -2.1541e-4,0.001514 -2.0835e-4,0.0014643 v 0 l -1.995e-4,0.0014021 v 0 l -1.8889e-4,0.0013276 -1.7652e-4,0.0012406 -1.6237e-4,0.001141 v 0 l -1.4647e-4,0.001029 v 0 l -1.2877e-4,9.0507e-4 v 0 l -1.0932e-4,7.6838e-4 -8.811e-5,6.1926e-4 -6.513e-5,4.5772e-4 v 0 l -4.037e-5,2.8374e-4 z"
         id="path134"
         style="fill:#e5e5e5;fill-opacity:1"
         transform="matrix(1340.7071,0,0,1329.6232,16.211128,71.953194)"
         mask="url(#mask-powermask-path-effect11196)"
         inkscape:path-effect="#path-effect11196"
         inkscape:original-d="m 0.0533943,0.10542179 -2e-8,1.5e-7 h 3e-8 l 1.1e-7,10e-9 1e-7,10e-9 4.975e-5,1.53e-6 10e-9,1e-8 5.001e-5,1.51e-6 1e-8,10e-9 5.002e-5,1.48e-6 h 1e-8 l 5.003e-5,1.44e-6 h 1e-8 l 5.004e-5,1.42e-6 h 1e-8 l 5.004e-5,1.38e-6 h 1e-8 l 5.006e-5,1.34e-6 h 1e-8 l 5.006e-5,1.3e-6 h 1e-8 l 5.007e-5,1.27e-6 h 1e-8 l 5.009e-5,1.22e-6 h 10e-9 l 5.01e-5,1.18e-6 10e-9,10e-9 5.01e-5,1.13e-6 1e-8,10e-9 5.012e-5,1.09e-6 h 1e-8 l 5.011e-5,1.05e-6 h 2e-8 l 5.014e-5,1e-6 h 1e-8 l 5.015e-5,9.6e-7 h 1e-8 l 5.018e-5,9.1e-7 h 1e-8 l 5.017e-5,8.6e-7 h 2e-8 l 5.017e-5,8e-7 h 1e-8 l 5.021e-5,7.5e-7 h 10e-9 l 5.02e-5,7e-7 h 2e-8 l 5.02e-5,6.5e-7 h 1e-8 l 5.024e-5,5.9e-7 h 10e-9 l 5.026e-5,5.4e-7 h 2e-8 l 5.023e-5,4.7e-7 h 10e-9 l 5.03e-5,4.1e-7 v 0 h 1e-8 l 5.03e-5,3.6e-7 v 0 l 5.031e-5,2.9e-7 v 0 l 5.03e-5,2.3e-7 5.037e-5,1.7e-7 5.033e-5,1e-7 5.032e-5,3e-8 h 7e-8 9e-8 l 0.0021957,-4.691e-5 3.6e-7,-2e-8 h 3e-8 l 0.0021716,-1.3946e-4 4e-7,-4e-8 0.0021457,-2.3009e-4 2.7e-7,-4e-8 8e-8,-1e-8 0.0021179,-3.1881e-4 3.9e-7,-7e-8 0.0020883,-4.0565e-4 v 0 l 0.0020568,-4.9059e-4 3.9e-7,-1e-7 10e-9,-10e-9 0.002023,-5.735e-4 3.7e-7,-1.1e-7 0.0019876,-6.546e-4 1.7e-7,-6e-8 1.9e-7,-6e-8 0.0019502,-7.3376e-4 3.5e-7,-1.4e-7 0.0019109,-8.1101e-4 3.4e-7,-1.5e-7 0.0018698,-8.8637e-4 3.4e-7,-1.7e-7 0.0018266,-9.5977e-4 3.2e-7,-1.8e-7 0.0017817,-0.0010313 3.2e-7,-1.9e-7 0.0017347,-0.0011009 3.3e-7,-2.1e-7 0.0016859,-0.0011686 3e-7,-2.2e-7 0.0016352,-0.0012344 2.9e-7,-2.2e-7 0.0015826,-0.0012983 10e-9,-10e-9 0.0015281,-0.0013604 2.7e-7,-2.5e-7 0.0014715,-0.0014203 1.3e-7,-1.3e-7 0.0014132,-0.0014785 2.5e-7,-2.7e-7 0.0013528,-0.0015346 2.4e-7,-2.7e-7 0.0012906,-0.0015889 2e-8,-3e-8 2.1e-7,-2.7e-7 0.0012265,-0.0016413 2.1e-7,-3e-7 0.0011605,-0.0016919 v -10e-9 l 0.0010926,-0.0017406 2e-7,-3.2e-7 0.0010227,-0.0017871 10e-9,-2e-8 9.51e-4,-0.001832 1.7e-7,-3.5e-7 8.7722e-4,-0.0018747 2e-8,-4e-8 5e-8,-1.1e-7 8.0167e-4,-0.0019157 1.5e-7,-3.8e-7 7.2418e-4,-0.0019547 v 0 -2e-8 l 6.4478e-4,-0.001992 2e-8,-4e-8 10e-9,-6e-8 2e-8,-7e-8 5.6339e-4,-0.002027 4e-8,-1.7e-7 10e-9,-6e-8 -3e-8,-10e-9 -1.7e-7,-3e-8 -9.718e-5,-1.382e-5 v 0 l -2.8393e-4,-4.038e-5 -4.58e-4,-6.514e-5 v 0 l -6.1965e-4,-8.812e-5 v 0 l -7.6887e-4,-1.0935e-4 -9.0563e-4,-1.288e-4 v 0 l -0.00103,-1.4649e-4 -0.0011419,-1.624e-4 v 0 l -0.0012414,-1.7655e-4 -0.0013284,-1.8893e-4 -0.001403,-1.9954e-4 v 0 l -0.0014652,-2.0838e-4 -0.0015149,-2.1546e-4 v 0 L 0.09008173,0.0655571 v 0 l -0.0015771,-2.2429e-4 -0.0015895,-2.2606e-4 -0.0015895,-2.2607e-4 -0.0015771,-2.243e-4 v 0 0 l -0.0015522,-2.2076e-4 v 0 l -0.0015149,-2.1546e-4 -0.0014652,-2.0838e-4 v 0 l -0.001403,-1.9954e-4 -0.0013284,-1.8892e-4 -0.0012414,-1.7655e-4 -0.0011419,-1.6241e-4 v 0 l -0.00103,-1.4648e-4 v 0 l -9.0566e-4,-1.288e-4 -7.6884e-4,-1.0935e-4 -6.1965e-4,-8.814e-5 v 0 l -4.5801e-4,-6.513e-5 -2.8392e-4,-4.038e-5 -9.718e-5,-1.382e-5 -2.4e-7,-3e-8 -1.3e-7,2.2e-7 -2.2294e-4,4.1729e-4 -1.4e-7,2.5e-7 -2.3428e-4,4.1026e-4 -1.5e-7,2.5e-7 -2.4536e-4,4.0293e-4 -1.5e-7,2.4e-7 -2.5627e-4,3.9539e-4 -1.5e-7,2.4e-7 -2.669e-4,3.8764e-4 -1.6e-7,2.3e-7 -2.7742e-4,3.7969e-4 -1.7e-7,2.2e-7 -2.8763e-4,3.7154e-4 -1.7e-7,2.1e-7 -2.977e-4,3.6315e-4 -1.8e-7,2.2e-7 -3.0752e-4,3.5457e-4 -1.9e-7,2.1e-7 -3.1718e-4,3.458e-4 -1.9e-7,2e-7 -3.2659e-4,3.3679e-4 -1.9e-7,1.9e-7 -3.3582e-4,3.2759e-4 -2.1e-7,1.9e-7 -3.4481e-4,3.1818e-4 -2.1e-7,1.9e-7 -3.5363e-4,3.0856e-4 -2.2e-7,1.8e-7 -3.6224e-4,2.9873e-4 -2.1e-7,1.7e-7 -3.7061e-4,2.887e-4 -2.3e-7,1.7e-7 -3.788e-4,2.7845e-4 -2.2e-7,1.6e-7 -3.8676e-4,2.6801e-4 -2.3e-7,1.5e-7 -3.9456e-4,2.5735e-4 -2.3e-7,1.5e-7 -4.0213e-4,2.4647e-4 -2.4e-7,1.4e-7 -4.0945e-4,2.354e-4 -2.4e-7,1.4e-7 -4.1663e-4,2.2413e-4 -2.5e-7,1.3e-7 -4.2353e-4,2.1262e-4 -2.6e-7,1.3e-7 -4.303e-4,2.0093e-4 -2.6e-7,1.2e-7 -4.3679e-4,1.8902e-4 -2.6e-7,1.1e-7 -4.4313e-4,1.7691e-4 -2.7e-7,1e-7 -4.4924e-4,1.6459e-4 -2.7e-7,9e-8 -4.5514e-4,1.5207e-4 -2.7e-7,9e-8 -4.6083e-4,1.3931e-4 -2.7e-7,8e-8 -4.6634e-4,1.2638e-4 -2.8e-7,7e-8 -4.7161e-4,1.1323e-4 -2.8e-7,6e-8 -4.7658e-4,9.984e-5 -1.1e-7,3e-8 -1.2e-7,3e-8 v 0 l -4e-8,2.1e-7 v 2e-8 l -1.382e-5,9.71e-5 v 0 l -4.039e-5,2.8374e-4 v 0 l -6.511e-5,4.5771e-4 v 0 l -8.81e-5,6.1927e-4 -1.0935e-4,7.6838e-4 v 0 l -1.2877e-4,9.0508e-4 v 0 l -1.4645e-4,0.0010293 -1.6236e-4,0.0011412 -1.7652e-4,0.0012406 v 0 l -1.8889e-4,0.0013276 -1.995e-4,0.0014021 -2.0834e-4,0.0014643 v 0 l -2.1541e-4,0.001514 -2.2072e-4,0.0015513 -2.2426e-4,0.0015761 v 0 l -2.2602e-4,0.0015885 -2.2603e-4,0.0015885 v 0 l -2.2423e-4,0.0015761 -2.2071e-4,0.0015513 -2.1541e-4,0.001514 -2.0835e-4,0.0014643 v 0 l -1.995e-4,0.0014021 v 0 l -1.8889e-4,0.0013276 -1.7652e-4,0.0012406 -1.6237e-4,0.001141 v 0 l -1.4647e-4,0.001029 v 0 l -1.2877e-4,9.0507e-4 v 0 l -1.0932e-4,7.6838e-4 -8.811e-5,6.1926e-4 -6.513e-5,4.5772e-4 v 0 l -4.037e-5,2.8374e-4 z" /><path
         fill-rule="evenodd"
         fill="#000000"
         stroke="#555555"
         stroke-width="0"
         opacity="1"
         d="m 0.06269315,0.0400645 -2e-8,1.1e-7 v 7e-8 l 9e-8,6e-8 2e-8,1e-8 4.1749e-4,2.2295e-4 2.5e-7,1.3e-7 4.1037e-4,2.3424e-4 2.4e-7,1.5e-7 4.0302e-4,2.4532e-4 2.4e-7,1.5e-7 3.9548e-4,2.5619e-4 2.3e-7,1.5e-7 3.8777e-4,2.6687e-4 2.2e-7,1.6e-7 3.7979e-4,2.7732e-4 2.2e-7,1.7e-7 3.7162e-4,2.8758e-4 2.2e-7,1.7e-7 3.6323e-4,2.9763e-4 2.1e-7,1.8e-7 3.5467e-4,3.0746e-4 2.1e-7,1.8e-7 3.4589e-4,3.171e-4 2e-7,1.9e-7 3.369e-4,3.2651e-4 2e-7,2e-7 3.2766e-4,3.3573e-4 1.9e-7,2e-7 3.1828e-4,3.4474e-4 1.8e-7,2.1e-7 3.0863e-4,3.5355e-4 1.8e-7,2.1e-7 2.9883e-4,3.6215e-4 1.8e-7,2.2e-7 2.8876e-4,3.7053e-4 1.7e-7,2.2e-7 2.7854e-4,3.7872e-4 1.6e-7,2.3e-7 2.6807e-4,3.8669e-4 1.5e-7,2.4e-7 2.5743e-4,3.9446e-4 1.5e-7,2.3e-7 2.4653e-4,4.0203e-4 1.4e-7,2.4e-7 2.3548e-4,4.0937e-4 1.3e-7,2.5e-7 2.2419e-4,4.1652e-4 1.3e-7,2.5e-7 2.1266e-4,4.2346e-4 1.3e-7,2.6e-7 2.0098e-4,4.3019e-4 1.2e-7,2.6e-7 1.8907e-4,4.3672e-4 1.1e-7,2.7e-7 1.7695e-4,4.4304e-4 1e-7,2.7e-7 1.6462e-4,4.4914e-4 1e-7,2.8e-7 1.5208e-4,4.5505e-4 9e-8,2.8e-7 1.3933e-4,4.6075e-4 8e-8,2.8e-7 1.264e-4,4.6624e-4 7e-8,2.8e-7 1.1321e-4,4.7153e-4 7e-8,2.8e-7 9.985e-5,4.7652e-4 v 1e-8 l 5e-8,2.1e-7 1.2e-7,2e-8 1.2e-7,3e-8 9.709e-5,1.381e-5 v 0 l 2.8381e-4,4.036e-5 4.5779e-4,6.511e-5 v 0 l 6.1941e-4,8.809e-5 7.6851e-4,1.0929e-4 v 0 0 l 9.0525e-4,1.2874e-4 v 0 l 0.0010296,1.4642e-4 v 0 0 l 0.0011414,1.6233e-4 0.0012408,1.7647e-4 v 0 0 l 0.0013278,1.8884e-4 0.0014024,1.9944e-4 v 0 l 0.0014646,2.0828e-4 0.0015143,2.1536e-4 0.0015515,2.2066e-4 v 0 0 l 0.0015764,2.2419e-4 0.0015889,2.2596e-4 0.0015889,2.2596e-4 v 0 l 0.0015764,2.2419e-4 0.0015515,2.2066e-4 v 0 0 l 0.0015143,2.1535e-4 v 0 l 0.0014646,2.0829e-4 0.0014024,1.9944e-4 v 0 0 l 0.0013278,1.8884e-4 0.0012408,1.7647e-4 v 0 l 0.001141,1.6232e-4 v 0 l 0.00103,1.4642e-4 9.0525e-4,1.2875e-4 v 0 l 7.6851e-4,1.0929e-4 v 0 l 6.1941e-4,8.809e-5 4.5779e-4,6.51e-5 v 0 l 2.8381e-4,4.036e-5 9.709e-5,1.382e-5 2.3e-7,2e-8 2e-8,-2.4e-7 1.57e-6,-4.971e-5 v -1e-8 l 1.52e-6,-4.999e-5 v 0 l 1.52e-6,-4.997e-5 v -10e-9 l 1.46e-6,-5e-5 v -1e-8 l 1.44e-6,-5e-5 v -10e-9 l 1.4e-6,-5e-5 v -1e-8 l 1.34e-6,-5.003e-5 v -1e-8 l 1.31e-6,-5.002e-5 v -1e-8 l 1.25e-6,-5.006e-5 v 0 l 1.25e-6,-5.004e-5 v -1e-8 l 1.19e-6,-5.006e-5 v -1e-8 l 1.14e-6,-5.007e-5 v -2e-8 l 1.07e-6,-5.01e-5 v 0 l 1.07e-6,-5.008e-5 v -1e-8 l 9.9e-7,-5.012e-5 v 0 l 9.5e-7,-5.012e-5 v -1e-8 l 8.9e-7,-5.014e-5 v -10e-9 l 8.7e-7,-5.013e-5 v -2e-8 l 7.7e-7,-5.017e-5 v 0 l 7.8e-7,-5.016e-5 v -1e-8 l 6.8e-7,-5.019e-5 v -1e-8 l 6.3e-7,-5.021e-5 v 0 l 5.9e-7,-5.02e-5 v -2e-8 l 5.1e-7,-5.023e-5 v -1e-8 l 4.8e-7,-5.024e-5 v -1e-8 l 4.2e-7,-5.024e-5 v -2e-8 l 3.2e-7,-5.028e-5 v -1e-8 l 3e-7,-5.028e-5 v -1e-8 l 2.4e-7,-5.029e-5 v -2e-8 l 1.5e-7,-5.031e-5 v -1e-8 l 9e-8,-5.034e-5 v -1e-8 l 6e-8,-5.035e-5 v 0 l -4.694e-5,-0.0021955 -1.395e-4,-0.0021715 v -3e-8 -5e-8 l -1e-8,-10e-8 v -1e-8 l -2.3017e-4,-0.0021455 -3e-8,-1.9e-7 -3.1888e-4,-0.0021177 -2e-8,-6e-8 v -5e-8 0 0 l -4.0575e-4,-0.002088 -10e-9,-3e-8 -7e-8,-3.7e-7 -4.9067e-4,-0.0020563 -1e-8,-2e-8 -5.7372e-4,-0.002023 -10e-9,-3e-8 -10e-9,-5e-8 v -1e-8 l -1e-8,-1e-8 -6.5477e-4,-0.0019873 -1.3e-7,-3.7e-7 -7.3389e-4,-0.0019498 -8e-8,-2e-7 -8.1125e-4,-0.0019107 -1.6e-7,-3.5e-7 -8.8651e-4,-0.0018694 -9e-8,-1.7e-7 -8e-8,-1.6e-7 -9.5997e-4,-0.0018263 -1.8e-7,-3.3e-7 -0.0010315,-0.0017813 -1.9e-7,-3.2e-7 -0.0011011,-0.0017344 -8e-8,-1.1e-7 -1.3e-7,-2e-7 -0.0011688,-0.0016856 -2.2e-7,-3e-7 -0.0012346,-0.0016348 -2.3e-7,-3.1e-7 -0.0012985,-0.0015822 -2.4e-7,-2.7e-7 -0.0013605,-0.0015277 -3e-8,-4e-8 -1.4e-7,-1.4e-7 -8e-8,-9e-8 -0.0014206,-0.0014712 -2.5e-7,-2.5e-7 -0.0014788,-0.0014129 h -1e-8 l -0.0015351,-0.0013527 -2.9e-7,-2.5e-7 -0.0015894,-0.0012904 -1e-8,-10e-9 -0.0016419,-0.0012264 -3.1e-7,-2.2e-7 -0.0016922,-0.0011602 -3.1e-7,-2.1e-7 -0.0017408,-0.0010923 -3.1e-7,-1.8e-7 -0.0017874,-0.0010224 -3.3e-7,-1.8e-7 -0.0018322,-9.507e-4 -2.6e-7,-1.3e-7 -0.0018751,-8.7703e-4 -3.5e-7,-1.6e-7 -0.0019161,-8.0148e-4 h -10e-9 l -0.0019553,-7.2405e-4 -3.6e-7,-1.3e-7 -0.0019922,-6.4459e-4 v 0 l -0.0020275,-5.633e-4 -2.3e-7,-6e-8 -4e-8,2.4e-7 -1.386e-5,9.713e-5 v 0 l -4.038e-5,2.8387e-4 -6.515e-5,4.5791e-4 -8.815e-5,6.1952e-4 v 0 l -1.0938e-4,7.6871e-4 -1.2883e-4,9.0545e-4 v 0 l -1.4651e-4,0.00102978 v 0 l -1.6242e-4,0.0011417 -1.7661e-4,0.0012411 v 0 l -1.8895e-4,0.0013281 -1.9958e-4,0.0014027 -2.0844e-4,0.0014649 v 0 l -2.155e-4,0.0015146 v 0 0 l -2.2081e-4,0.0015519 v 0 l -2.2432e-4,0.0015768 -2.2614e-4,0.0015892 v 0 l -2.2608e-4,0.0015892 -2.2435e-4,0.0015768 v 0 l -2.2081e-4,0.0015519 -2.155e-4,0.0015146 -2.0844e-4,0.0014649 v 0 l -1.9955e-4,0.0014027 -1.8898e-4,0.0013281 v 0 l -1.7658e-4,0.0012411 -1.6245e-4,0.0011417 v 0 l -1.4651e-4,0.0010298 -1.2883e-4,9.0545e-4 v 0 l -1.0938e-4,7.6871e-4 -8.815e-5,6.1952e-4 v 0 l -6.515e-5,4.5791e-4 v 0 l -4.038e-5,2.8386e-4 z"
         id="path136"
         style="fill:#e5e5e5;fill-opacity:1"
         transform="matrix(1340.7071,0,0,1329.6232,16.211128,71.953194)"
         mask="url(#mask-powermask-path-effect11191)"
         inkscape:path-effect="#path-effect11191"
         inkscape:original-d="m 0.06269315,0.0400645 -2e-8,1.1e-7 v 7e-8 l 9e-8,6e-8 2e-8,1e-8 4.1749e-4,2.2295e-4 2.5e-7,1.3e-7 4.1037e-4,2.3424e-4 2.4e-7,1.5e-7 4.0302e-4,2.4532e-4 2.4e-7,1.5e-7 3.9548e-4,2.5619e-4 2.3e-7,1.5e-7 3.8777e-4,2.6687e-4 2.2e-7,1.6e-7 3.7979e-4,2.7732e-4 2.2e-7,1.7e-7 3.7162e-4,2.8758e-4 2.2e-7,1.7e-7 3.6323e-4,2.9763e-4 2.1e-7,1.8e-7 3.5467e-4,3.0746e-4 2.1e-7,1.8e-7 3.4589e-4,3.171e-4 2e-7,1.9e-7 3.369e-4,3.2651e-4 2e-7,2e-7 3.2766e-4,3.3573e-4 1.9e-7,2e-7 3.1828e-4,3.4474e-4 1.8e-7,2.1e-7 3.0863e-4,3.5355e-4 1.8e-7,2.1e-7 2.9883e-4,3.6215e-4 1.8e-7,2.2e-7 2.8876e-4,3.7053e-4 1.7e-7,2.2e-7 2.7854e-4,3.7872e-4 1.6e-7,2.3e-7 2.6807e-4,3.8669e-4 1.5e-7,2.4e-7 2.5743e-4,3.9446e-4 1.5e-7,2.3e-7 2.4653e-4,4.0203e-4 1.4e-7,2.4e-7 2.3548e-4,4.0937e-4 1.3e-7,2.5e-7 2.2419e-4,4.1652e-4 1.3e-7,2.5e-7 2.1266e-4,4.2346e-4 1.3e-7,2.6e-7 2.0098e-4,4.3019e-4 1.2e-7,2.6e-7 1.8907e-4,4.3672e-4 1.1e-7,2.7e-7 1.7695e-4,4.4304e-4 1e-7,2.7e-7 1.6462e-4,4.4914e-4 1e-7,2.8e-7 1.5208e-4,4.5505e-4 9e-8,2.8e-7 1.3933e-4,4.6075e-4 8e-8,2.8e-7 1.264e-4,4.6624e-4 7e-8,2.8e-7 1.1321e-4,4.7153e-4 7e-8,2.8e-7 9.985e-5,4.7652e-4 v 1e-8 l 5e-8,2.1e-7 1.2e-7,2e-8 1.2e-7,3e-8 9.709e-5,1.381e-5 v 0 l 2.8381e-4,4.036e-5 4.5779e-4,6.511e-5 v 0 l 6.1941e-4,8.809e-5 7.6851e-4,1.0929e-4 v 0 0 l 9.0525e-4,1.2874e-4 v 0 l 0.0010296,1.4642e-4 v 0 0 l 0.0011414,1.6233e-4 0.0012408,1.7647e-4 v 0 0 l 0.0013278,1.8884e-4 0.0014024,1.9944e-4 v 0 l 0.0014646,2.0828e-4 0.0015143,2.1536e-4 0.0015515,2.2066e-4 v 0 0 l 0.0015764,2.2419e-4 0.0015889,2.2596e-4 0.0015889,2.2596e-4 v 0 l 0.0015764,2.2419e-4 0.0015515,2.2066e-4 v 0 0 l 0.0015143,2.1535e-4 v 0 l 0.0014646,2.0829e-4 0.0014024,1.9944e-4 v 0 0 l 0.0013278,1.8884e-4 0.0012408,1.7647e-4 v 0 l 0.001141,1.6232e-4 v 0 l 0.00103,1.4642e-4 9.0525e-4,1.2875e-4 v 0 l 7.6851e-4,1.0929e-4 v 0 l 6.1941e-4,8.809e-5 4.5779e-4,6.51e-5 v 0 l 2.8381e-4,4.036e-5 9.709e-5,1.382e-5 2.3e-7,2e-8 2e-8,-2.4e-7 1.57e-6,-4.971e-5 v -1e-8 l 1.52e-6,-4.999e-5 v 0 l 1.52e-6,-4.997e-5 v -10e-9 l 1.46e-6,-5e-5 v -1e-8 l 1.44e-6,-5e-5 v -10e-9 l 1.4e-6,-5e-5 v -1e-8 l 1.34e-6,-5.003e-5 v -1e-8 l 1.31e-6,-5.002e-5 v -1e-8 l 1.25e-6,-5.006e-5 v 0 l 1.25e-6,-5.004e-5 v -1e-8 l 1.19e-6,-5.006e-5 v -1e-8 l 1.14e-6,-5.007e-5 v -2e-8 l 1.07e-6,-5.01e-5 v 0 l 1.07e-6,-5.008e-5 v -1e-8 l 9.9e-7,-5.012e-5 v 0 l 9.5e-7,-5.012e-5 v -1e-8 l 8.9e-7,-5.014e-5 v -10e-9 l 8.7e-7,-5.013e-5 v -2e-8 l 7.7e-7,-5.017e-5 v 0 l 7.8e-7,-5.016e-5 v -1e-8 l 6.8e-7,-5.019e-5 v -1e-8 l 6.3e-7,-5.021e-5 v 0 l 5.9e-7,-5.02e-5 v -2e-8 l 5.1e-7,-5.023e-5 v -1e-8 l 4.8e-7,-5.024e-5 v -1e-8 l 4.2e-7,-5.024e-5 v -2e-8 l 3.2e-7,-5.028e-5 v -1e-8 l 3e-7,-5.028e-5 v -1e-8 l 2.4e-7,-5.029e-5 v -2e-8 l 1.5e-7,-5.031e-5 v -1e-8 l 9e-8,-5.034e-5 v -1e-8 l 6e-8,-5.035e-5 v 0 l -4.694e-5,-0.0021955 -1.395e-4,-0.0021715 v -3e-8 -5e-8 l -1e-8,-10e-8 v -1e-8 l -2.3017e-4,-0.0021455 -3e-8,-1.9e-7 -3.1888e-4,-0.0021177 -2e-8,-6e-8 v -5e-8 0 0 l -4.0575e-4,-0.002088 -10e-9,-3e-8 -7e-8,-3.7e-7 -4.9067e-4,-0.0020563 -1e-8,-2e-8 -5.7372e-4,-0.002023 -10e-9,-3e-8 -10e-9,-5e-8 v -1e-8 l -1e-8,-1e-8 -6.5477e-4,-0.0019873 -1.3e-7,-3.7e-7 -7.3389e-4,-0.0019498 -8e-8,-2e-7 -8.1125e-4,-0.0019107 -1.6e-7,-3.5e-7 -8.8651e-4,-0.0018694 -9e-8,-1.7e-7 -8e-8,-1.6e-7 -9.5997e-4,-0.0018263 -1.8e-7,-3.3e-7 -0.0010315,-0.0017813 -1.9e-7,-3.2e-7 -0.0011011,-0.0017344 -8e-8,-1.1e-7 -1.3e-7,-2e-7 -0.0011688,-0.0016856 -2.2e-7,-3e-7 -0.0012346,-0.0016348 -2.3e-7,-3.1e-7 -0.0012985,-0.0015822 -2.4e-7,-2.7e-7 -0.0013605,-0.0015277 -3e-8,-4e-8 -1.4e-7,-1.4e-7 -8e-8,-9e-8 -0.0014206,-0.0014712 -2.5e-7,-2.5e-7 -0.0014788,-0.0014129 h -1e-8 l -0.0015351,-0.0013527 -2.9e-7,-2.5e-7 -0.0015894,-0.0012904 -1e-8,-10e-9 -0.0016419,-0.0012264 -3.1e-7,-2.2e-7 -0.0016922,-0.0011602 -3.1e-7,-2.1e-7 -0.0017408,-0.0010923 -3.1e-7,-1.8e-7 -0.0017874,-0.0010224 -3.3e-7,-1.8e-7 -0.0018322,-9.507e-4 -2.6e-7,-1.3e-7 -0.0018751,-8.7703e-4 -3.5e-7,-1.6e-7 -0.0019161,-8.0148e-4 h -10e-9 l -0.0019553,-7.2405e-4 -3.6e-7,-1.3e-7 -0.0019922,-6.4459e-4 v 0 l -0.0020275,-5.633e-4 -2.3e-7,-6e-8 -4e-8,2.4e-7 -1.386e-5,9.713e-5 v 0 l -4.038e-5,2.8387e-4 -6.515e-5,4.5791e-4 -8.815e-5,6.1952e-4 v 0 l -1.0938e-4,7.6871e-4 -1.2883e-4,9.0545e-4 v 0 l -1.4651e-4,0.00102978 v 0 l -1.6242e-4,0.0011417 -1.7661e-4,0.0012411 v 0 l -1.8895e-4,0.0013281 -1.9958e-4,0.0014027 -2.0844e-4,0.0014649 v 0 l -2.155e-4,0.0015146 v 0 0 l -2.2081e-4,0.0015519 v 0 l -2.2432e-4,0.0015768 -2.2614e-4,0.0015892 v 0 l -2.2608e-4,0.0015892 -2.2435e-4,0.0015768 v 0 l -2.2081e-4,0.0015519 -2.155e-4,0.0015146 -2.0844e-4,0.0014649 v 0 l -1.9955e-4,0.0014027 -1.8898e-4,0.0013281 v 0 l -1.7658e-4,0.0012411 -1.6245e-4,0.0011417 v 0 l -1.4651e-4,0.0010298 -1.2883e-4,9.0545e-4 v 0 l -1.0938e-4,7.6871e-4 -8.815e-5,6.1952e-4 v 0 l -6.515e-5,4.5791e-4 v 0 l -4.038e-5,2.8386e-4 z" /></g><g
       id="g150"
       transform="matrix(1340.7071,0,0,1329.6232,16.211128,71.953193)"><path
         fill-rule="evenodd"
         fill="#000000"
         stroke="#555555"
         stroke-width="0"
         opacity="1"
         d="m 0.00454004,0.05500015 4.692e-5,0.0021953 v 4e-8 l 10e-9,5e-8 v 8e-8 2e-8 l 1.3949e-4,0.0021713 v 4e-8 l 10e-9,1.6e-7 2.3016e-4,0.0021455 10e-9,6e-8 10e-9,6e-8 3.189e-4,0.0021176 7e-8,4e-7 4.0569e-4,0.0020877 v 2e-8 l 2e-8,6e-8 v 4e-8 l 4.9067e-4,0.0020563 3e-8,9e-8 7e-8,2.8e-7 5.7364e-4,0.0020227 10e-9,3e-8 6.5479e-4,0.0019874 6e-8,1.9e-7 5e-8,1.2e-7 7.3392e-4,0.0019499 3e-8,7e-8 8.1122e-4,0.0019107 7e-8,1.5e-7 8e-8,1.9e-7 8.8651e-4,0.0018694 1.7e-7,3.4e-7 9.5999e-4,0.0018264 1e-8,1e-8 0.0010316,0.0017815 1.9e-7,3.2e-7 0.0011011,0.0017344 7e-8,10e-8 1.3e-7,2.1e-7 0.0011688,0.0016856 2.1e-7,3e-7 0.0012346,0.0016348 2.4e-7,3e-7 0.0012985,0.0015822 2.3e-7,2.8e-7 0.0013605,0.0015276 4e-8,4e-8 1.3e-7,1.4e-7 9e-8,9e-8 0.0014205,0.0014712 2.6e-7,2.5e-7 0.0014787,0.0014129 h 10e-9 l 0.0015351,0.0013527 2.9e-7,2.4e-7 0.0015893,0.0012904 10e-9,10e-9 0.0016418,0.0012264 3.1e-7,2.3e-7 0.0016922,0.0011602 3e-7,2e-7 0.0017408,0.0010923 3.1e-7,1.8e-7 0.0017874,0.0010225 3.3e-7,1.8e-7 0.0018322,9.5073e-4 2.6e-7,1.3e-7 0.0018751,8.7707e-4 3.6e-7,1.6e-7 0.0019161,8.0152e-4 v 0 l 0.0019553,7.2409e-4 3.6e-7,1.3e-7 0.0019922,6.4464e-4 v 10e-9 l 0.0020275,5.6335e-4 2.3e-7,5e-8 5e-8,-2.4e-7 1.38e-5,-9.713e-5 4.04e-5,-2.8386e-4 v 0 l 6.515e-5,-4.579e-4 8.815e-5,-6.1952e-4 v -10e-9 l 1.0936e-4,-7.6869e-4 1.2884e-4,-9.0545e-4 v 0 l 1.4651e-4,-0.0010298 1.6245e-4,-0.0011416 v 0 L 0.0434076,0.0973372 0.04359658,0.0960091 v 0 l 1.9957e-4,-0.0014027 2.0842e-4,-0.0014649 2.155e-4,-0.0015146 2.2082e-4,-0.0015519 v 0 L 0.04466523,0.0884982 0.04489134,0.086909 0.04511746,0.0853198 v 0 L 0.0453418,0.083743 0.04556261,0.0821911 0.04577811,0.0806765 0.04598654,0.0792116 v 0 l 1.9959e-4,-0.0014027 v 0 l 1.8896e-4,-0.0013281 1.7659e-4,-0.0012411 v 0 l 1.6243e-4,-0.0011416 1.4652e-4,-0.0010298 v 0 l 1.2882e-4,-9.0545e-4 1.0938e-4,-7.6869e-4 8.815e-5,-6.1953e-4 v 0 l 6.515e-5,-4.579e-4 v 0 l 4.038e-5,-2.8386e-4 1.383e-5,-9.72e-5 2e-8,-1.5e-7 v 0 -3e-8 l -5e-8,-4e-8 -4.1753e-4,-2.2299e-4 -2.4e-7,-1.3e-7 -4.1033e-4,-2.3424e-4 -2.4e-7,-1.5e-7 -4.03e-4,-2.4533e-4 -2.4e-7,-1.5e-7 -3.9548e-4,-2.562e-4 -2.3e-7,-1.6e-7 -3.8771e-4,-2.6687e-4 -2.3e-7,-1.7e-7 -3.7978e-4,-2.7733e-4 -2.2e-7,-1.7e-7 -3.716e-4,-2.8759e-4 -2.2e-7,-1.7e-7 -3.6323e-4,-2.9764e-4 -2.2e-7,-1.8e-7 -3.5464e-4,-3.0748e-4 -2.1e-7,-1.8e-7 -3.4588e-4,-3.1711e-4 -2e-7,-1.9e-7 -3.3686e-4,-3.2653e-4 -2e-7,-2e-7 -3.2766e-4,-3.3575e-4 -1.9e-7,-2e-7 -3.1825e-4,-3.4477e-4 -1.9e-7,-2e-7 -3.0864e-4,-3.5356e-4 -1.8e-7,-2.2e-7 -2.988e-4,-3.6216e-4 -1.7e-7,-2.2e-7 -2.8877e-4,-3.7054e-4 -1.6e-7,-2.3e-7 -2.7854e-4,-3.7873e-4 -1.6e-7,-2.3e-7 -2.6806e-4,-3.8669e-4 -1.6e-7,-2.3e-7 -2.5739e-4,-3.9447e-4 -1.5e-7,-2.4e-7 -2.4653e-4,-4.0203e-4 -1.4e-7,-2.4e-7 -2.3545e-4,-4.0938e-4 -1.4e-7,-2.4e-7 -2.2417e-4,-4.1652e-4 -1.3e-7,-2.5e-7 -2.1266e-4,-4.2347e-4 -1.3e-7,-2.5e-7 -2.0097e-4,-4.3019e-4 -1.2e-7,-2.6e-7 -1.8904e-4,-4.367e-4 -1.1e-7,-2.7e-7 -1.7693e-4,-4.4302e-4 -10e-8,-2.7e-7 -1.6461e-4,-4.4913e-4 -9e-8,-2.7e-7 -1.5207e-4,-4.5503e-4 -9e-8,-2.7e-7 -1.3931e-4,-4.6072e-4 -8e-8,-2.8e-7 -1.2636e-4,-4.662e-4 -7e-8,-2.9e-7 -1.1321e-4,-4.7148e-4 -7e-8,-2.8e-7 -9.982e-5,-4.7657e-4 -4e-8,-1.2e-7 -1.3e-7,-3e-8 -3e-8,-10e-9 -9.72e-5,-1.382e-5 -2.838e-4,-4.036e-5 -4.578e-4,-6.511e-5 v 0 l -6.1939e-4,-8.81e-5 -7.6853e-4,-1.093e-4 v 0 l -9.0526e-4,-1.2875e-4 v 0 L 0.03434617,0.05763021 0.03320477,0.05746788 0.03196397,0.0572914 v 0 l -0.0013279,-1.8885e-4 -0.0014024,-1.9946e-4 v 0 l -0.0014646,-2.083e-4 v 0 l -0.0015143,-2.1536e-4 v 0 0 l -0.0015516,-2.2067e-4 -0.0015764,-2.2421e-4 v 0 0 l -0.0015888,-2.2597e-4 v 0 L 0.01994907,0.05558261 0.01837267,0.0553584 0.01682107,0.05513773 v 0 l -0.0015143,-2.1537e-4 v 0 l -0.0014646,-2.083e-4 -0.0014024,-1.9945e-4 v 0 L 0.01111197,0.05432576 0.00987112,0.05414928 0.00872971,0.05398694 v 0 L 0.00770016,0.05384051 0.00679491,0.05371176 v 0 l -7.6854e-4,-1.093e-4 -6.1938e-4,-8.809e-5 v 0 l -4.5783e-4,-6.511e-5 -2.8379e-4,-4.037e-5 v 0 l -9.71e-5,-1.38e-5 -2.4e-7,-2e-8 -2e-8,2.3e-7 -1.54e-6,4.974e-5 v 1e-8 l -1.5e-6,5.001e-5 v 0 l -1.48e-6,5.001e-5 v 1e-8 l -1.44e-6,5.002e-5 v 1e-8 l -1.42e-6,5.002e-5 v 1e-8 l -1.37e-6,5.004e-5 v 10e-9 l -1.33e-6,5.004e-5 v 1e-8 l -1.29e-6,5.006e-5 v 0 l -1.27e-6,5.007e-5 v 1e-8 l -1.21e-6,5.008e-5 v 0 l -1.17e-6,5.008e-5 v 1e-8 l -1.12e-6,5.011e-5 v 0 l -1.09e-6,5.011e-5 v 1e-8 l -1.04e-6,5.011e-5 v 1e-8 l -9.9e-7,5.014e-5 v 0 l -9.5e-7,5.014e-5 v 1e-8 l -8.9e-7,5.015e-5 v 1e-8 l -8.4e-7,5.017e-5 v 1e-8 l -8e-7,5.016e-5 v 2e-8 l -7.3e-7,5.019e-5 v 1e-8 l -7e-7,5.019e-5 v 1e-8 l -6.3e-7,5.022e-5 v 1e-8 l -5.8e-7,5.022e-5 v 10e-9 l -5.2e-7,5.024e-5 v 1e-8 l -4.6e-7,5.025e-5 v 1e-8 l -4.2e-7,5.026e-5 v 1e-8 l -3.4e-7,5.028e-5 v 1e-8 l -2.9e-7,5.029e-5 v 10e-9 l -2.2e-7,5.031e-5 v 10e-9 l -1.6e-7,5.032e-5 v 10e-9 l -1.1e-7,5.033e-5 v 1e-8 z"
         id="path130"
         style="fill:#e5e5e5;fill-opacity:1" /><path
         fill-rule="evenodd"
         fill="#000000"
         stroke="#555555"
         stroke-width="0"
         opacity="1"
         d="m 0.00610757,0.04247853 v 0 l -3e-8,1.1e-7 5e-8,2e-8 9.734e-5,1.384e-5 2.8393e-4,4.038e-5 v 0 0 l 4.58e-4,6.514e-5 6.1965e-4,8.814e-5 v 0 l 7.6886e-4,1.0935e-4 v 0 l 9.0564e-4,1.288e-4 0.00102999,1.465e-4 v 0 l 0.0011419,1.6241e-4 v 0 l 0.0012414,1.7655e-4 0.0013284,1.8894e-4 v 0 l 0.001403,1.9955e-4 0.0014652,2.0839e-4 0.0015149,2.1547e-4 v 0 L 0.019918,0.0444429 v 0 l 0.0015771,2.2431e-4 0.0015895,2.2608e-4 0.0015895,2.2608e-4 v 0 l 0.0015771,2.243e-4 0.0015522,2.2078e-4 0.0015149,2.1547e-4 v 0 l 0.0014652,2.0839e-4 v 0 l 0.001403,1.9955e-4 0.0013284,1.8894e-4 v 0 l 0.0012414,1.7656e-4 v 0 l 0.0011419,1.6241e-4 0.00103,1.4649e-4 v 0 l 9.0564e-4,1.2881e-4 7.6886e-4,1.0935e-4 6.1965e-4,8.813e-5 4.58e-4,6.514e-5 v 0 l 2.8393e-4,4.038e-5 9.715e-5,1.385e-5 2.5e-7,2e-8 1.3e-7,-2.1e-7 2.2293e-4,-4.1729e-4 1.3e-7,-2.5e-7 2.3426e-4,-4.1027e-4 1.4e-7,-2.4e-7 2.4537e-4,-4.0294e-4 1.4e-7,-2.4e-7 2.5623e-4,-3.954e-4 1.5e-7,-2.3e-7 2.6692e-4,-3.8765e-4 1.6e-7,-2.3e-7 2.7735e-4,-3.797e-4 1.7e-7,-2.2e-7 2.8763e-4,-3.7153e-4 1.7e-7,-2.2e-7 2.9769e-4,-3.6317e-4 1.8e-7,-2.1e-7 3.0751e-4,-3.5459e-4 1.8e-7,-2e-7 3.1717e-4,-3.458e-4 1.9e-7,-2e-7 3.2657e-4,-3.3681e-4 2e-7,-2e-7 3.358e-4,-3.2759e-4 2.1e-7,-1.9e-7 3.4481e-4,-3.1819e-4 2.1e-7,-1.9e-7 3.5362e-4,-3.0857e-4 2.1e-7,-1.8e-7 3.6223e-4,-2.9874e-4 2.1e-7,-1.7e-7 3.7061e-4,-2.887e-4 2.3e-7,-1.7e-7 3.788e-4,-2.7846e-4 2.3e-7,-1.6e-7 3.8676e-4,-2.6801e-4 2.4e-7,-1.6e-7 3.9454e-4,-2.5734e-4 2.3e-7,-1.5e-7 4.0211e-4,-2.4649e-4 2.4e-7,-1.4e-7 4.0947e-4,-2.354e-4 2.4e-7,-1.4e-7 4.1661e-4,-2.2412e-4 2.6e-7,-1.3e-7 4.2353e-4,-2.1262e-4 2.6e-7,-1.3e-7 4.3028e-4,-2.0092e-4 2.6e-7,-1.2e-7 4.368e-4,-1.8902e-4 2.7e-7,-1.1e-7 4.4311e-4,-1.7691e-4 2.7e-7,-1e-7 4.4924e-4,-1.6458e-4 2.7e-7,-9e-8 4.5514e-4,-1.5205e-4 2.7e-7,-9e-8 4.6084e-4,-1.3931e-4 2.8e-7,-8e-8 4.6632e-4,-1.2636e-4 2.8e-7,-7e-8 4.7159e-4,-1.1321e-4 2.9e-7,-6e-8 4.7674e-4,-9.982e-5 9e-8,-3e-8 3e-8,-1.3e-7 1.383e-5,-9.721e-5 4.036e-5,-2.8374e-4 6.514e-5,-4.5771e-4 v 0 l 8.811e-5,-6.1926e-4 v 0 l 1.0931e-4,-7.6838e-4 1.2878e-4,-9.0507e-4 1.4646e-4,-0.0010293 1.6238e-4,-0.0011412 v 0 l 1.765e-4,-0.0012406 1.8891e-4,-0.0013276 v 0 l 1.9949e-4,-0.0014021 v 0 l 2.0833e-4,-0.0014643 2.1542e-4,-0.001514 2.2071e-4,-0.0015513 v 0 l 2.2425e-4,-0.0015761 2.2602e-4,-0.0015885 2.2602e-4,-0.0015885 2.2426e-4,-0.0015761 v 0 l 2.2072e-4,-0.0015513 v 0 l 2.1541e-4,-0.001514 2.0835e-4,-0.0014643 v 0 l 1.995e-4,-0.0014021 v 0 l 1.8888e-4,-0.0013276 1.7652e-4,-0.00124059 v 0 l 1.6237e-4,-0.00114119 v 0 l 1.4644e-4,-0.00102934 1.2878e-4,-9.0507e-4 1.0934e-4,-7.6838e-4 v 0 l 8.81e-5,-6.1926e-4 6.512e-5,-4.5772e-4 4.038e-5,-2.8374e-4 1.384e-5,-9.719e-5 v -3e-8 l 1e-8,-1e-7 -1.3e-7,-10e-9 -1e-7,-10e-9 -4.976e-5,-1.53e-6 h -1e-8 l -5e-5,-1.52e-6 h -10e-9 l -5.003e-5,-1.47e-6 v 0 l -5.003e-5,-1.45e-6 h -10e-9 l -5.003e-5,-1.4e-6 h -1e-8 l -5.003e-5,-1.38e-6 h -1e-8 l -5.006e-5,-1.33e-6 h -1e-8 l -5.005e-5,-1.3e-6 h -10e-9 l -5.006e-5,-1.25e-6 h -1e-8 l -5.006e-5,-1.21e-6 h -1e-8 l -5.009e-5,-1.17e-6 h -1e-8 l -5.008e-5,-1.13e-6 h -2e-8 l -5.011e-5,-1.08e-6 h -10e-9 l -5.012e-5,-1.03e-6 h -1e-8 l -5.012e-5,-9.9e-7 h -1e-8 l -5.014e-5,-9.5e-7 h -2e-8 l -5.014e-5,-8.9e-7 h -1e-8 l -5.015e-5,-8.5e-7 h -1e-8 l -5.017e-5,-7.9e-7 h -2e-8 l -5.017e-5,-7.5e-7 h -10e-9 l -5.021e-5,-6.8e-7 h -1e-8 l -5.02e-5,-6.4e-7 h -2e-8 l -5.023e-5,-5.8e-7 h -10e-9 l -5.023e-5,-5.2e-7 h -2e-8 l -5.023e-5,-4.6e-7 h -2e-8 l -5.026e-5,-4.1e-7 h -1e-8 l -5.029e-5,-3.5e-7 h -2e-8 l -5.029e-5,-2.8e-7 h -2e-8 l -5.029e-5,-2.3e-7 h -1e-8 l -5.032e-5,-1.6e-7 h -2e-8 l -5.035e-5,-1e-7 h -2e-8 l -5.031e-5,-4e-8 h -1.1e-7 l -0.0021957,4.691e-5 -3.7e-7,2e-8 h -3e-8 l -0.0021716,1.3945e-4 -4.1e-7,3e-8 -0.0021457,2.3008e-4 -3.9e-7,5e-8 -0.0021179,3.1881e-4 -3.9e-7,6e-8 -0.0020883,4.0564e-4 v 0 l -0.0020568,4.9056e-4 -3.8e-7,1e-7 -0.002023,5.7349e-4 -3.7e-7,1.1e-7 -0.0019876,6.5458e-4 -1.7e-7,6e-8 -1.9e-7,6e-8 -0.0019502,7.3373e-4 -3.6e-7,1.4e-7 -0.0019109,8.1098e-4 -4e-8,2e-8 -3.1e-7,1.4e-7 -0.0018698,8.8633e-4 -3.4e-7,1.7e-7 -0.0018267,9.5974e-4 -3.1e-7,1.8e-7 -0.0017817,0.0010313 -3.2e-7,1.9e-7 -0.0017348,0.0011009 -3.3e-7,2.1e-7 -0.0016859,0.0011685 -3e-7,2.2e-7 -0.0016353,0.0012344 -1e-8,10e-9 -0.0015827,0.0012984 -2.7e-7,2.3e-7 -0.001528,0.0013602 -2.7e-7,2.5e-7 -0.0014715,0.0014203 -1.2e-7,1.3e-7 -0.0014132,0.0014785 -2.5e-7,2.7e-7 -0.0013528,0.0015346 -2.4e-7,2.8e-7 -0.0012906,0.0015889 -3e-8,3e-8 -2.1e-7,2.7e-7 -0.0012265,0.0016413 -2.2e-7,3e-7 -0.0011605,0.0016919 -10e-9,1e-8 -0.0010926,0.0017406 -1.9e-7,3.2e-7 -0.0010227,0.0017871 -10e-9,10e-9 -9.5101e-4,0.0018321 -1.7e-7,3.5e-7 -8.7721e-4,0.0018746 -7e-8,1.7e-7 -8.0171e-4,0.0019158 -3e-8,7e-8 -7e-8,1.8e-7 -4e-8,9e-8 -7.2412e-4,0.0019546 -1.3e-7,3.7e-7 -6.4476e-4,0.0019918 z"
         id="path132"
         style="fill:#e5e5e5;fill-opacity:1" /></g><path
       fill-rule="evenodd"
       fill="#000000"
       stroke="#555555"
       stroke-width="0"
       opacity="1"
       d="m 0.05554009,0.06955816 -2.2e-7,1e-8 3e-8,6e-8 2e-8,2e-8 0.02538844,0.03569267 4e-8,5e-8 1e-7,1.3e-7 1.1e-7,-1.3e-7 4e-8,-5e-8 0.02538837,-0.03569256 1.2e-7,-1.9e-7 -6e-8,-1e-8 h -4e-8 -0.01617582 l -9.8e-7,-5e-8 -9.7e-7,-1.4e-7 -9.5e-7,-2.4e-7 -9.2e-7,-3.3e-7 -8.9e-7,-4.2e-7 -8.4e-7,-5.1e-7 -7.9e-7,-5.8e-7 -7.3e-7,-6.6e-7 -6.6e-7,-7.3e-7 -5.8e-7,-7.9e-7 -5.1e-7,-8.4e-7 -4.2e-7,-8.8e-7 -3.3e-7,-9.3e-7 -2.3e-7,-9.5e-7 -1.5e-7,-9.7e-7 -5e-8,-9.8e-7 V 0.04061285 l -10e-9,-2.3e-7 -2.3e-7,-1e-8 H 0.07172603 l -2.3e-7,1e-8 -1e-8,2.3e-7 v 0.02893531 l -5e-8,9.8e-7 -1.5e-7,9.7e-7 -2.3e-7,9.5e-7 -3.4e-7,9.3e-7 -4.2e-7,8.8e-7 -5e-7,8.4e-7 -5.8e-7,7.9e-7 -6.6e-7,7.3e-7 -7.3e-7,6.6e-7 -7.9e-7,5.8e-7 -8.4e-7,5.1e-7 -8.9e-7,4.2e-7 -9.2e-7,3.3e-7 -9.5e-7,2.4e-7 -9.7e-7,1.4e-7 -9.8e-7,5e-8 z"
       id="path126"
       transform="matrix(1340.7071,0,0,1329.6232,16.211128,71.953194)"
       style="fill:#e5e5e5;fill-opacity:1" /></g></svg>
